<svg viewBox="0 0 700 500" xmlns="http://www.w3.org/2000/svg">
  <rect width="700" height="500" rx="16" fill="#1a1a2e"/>

  <rect x="0" y="0" width="700" height="500" fill="url(#bgGrad)"/>
  <defs>
    <linearGradient id="bgGrad" x1="0" y1="0" x2="0" y2="1">
      <stop offset="0%" stop-color="#0d0d1a"/>
      <stop offset="100%" stop-color="#1a1a2e"/>
    </linearGradient>
    <linearGradient id="wallGrad" x1="0" y1="0" x2="0" y2="1">
      <stop offset="0%" stop-color="#2a2a3e"/>
      <stop offset="100%" stop-color="#1e1e30"/>
    </linearGradient>
    <radialGradient id="fogGrad" cx="50%" cy="50%" r="60%">
      <stop offset="0%" stop-color="rgba(0,229,255,0.04)"/>
      <stop offset="100%" stop-color="rgba(0,229,255,0)"/>
    </radialGradient>
  </defs>

  <rect x="0" y="0" width="700" height="500" fill="url(#fogGrad)"/>

  <text x="350" y="40" text-anchor="middle" fill="#00E5FF" font-size="18" font-family="sans-serif" font-weight="bold">🔦 The Corridor of Whispers</text>
  <text x="350" y="62" text-anchor="middle" fill="#ccc" font-size="12" font-family="sans-serif">Find which door Ron is hiding behind!</text>

  <rect x="50" y="90" width="600" height="280" rx="8" fill="url(#wallGrad)" stroke="#3a3a5e" stroke-width="2"/>

  <rect x="58" y="98" width="584" height="264" rx="6" fill="rgba(0,0,0,0.3)"/>

  <rect x="210" y="95" width="10" height="270" fill="#2a2a40" opacity="0.5"/>

  <line x1="105" y1="95" x2="775" y2="95" stroke="#3a3a5e" stroke-width="1"/>
  <line x1="105" y1="365" x2="775" y2="365" stroke="#3a3a5e" stroke-width="1"/>

  <g transform="translate(73, 115)">
    <rect x="0" y="0" width="90" height="220" rx="4" fill="#3d2b1f" stroke="#5c3d2e" stroke-width="2"/>
    <rect x="6" y="6" width="78" height="208" rx="2" fill="#4a3424"/>
    <rect x="36" y="16" width="18" height="50" rx="9" fill="#8B7355"/>
    <rect x="36" y="74" width="18" height="50" rx="9" fill="#8B7355"/>
    <rect x="36" y="132" width="18" height="50" rx="9" fill="#8B7355"/>
    <text x="45" y="208" text-anchor="middle" fill="#CE93D8" font-size="20" font-family="sans-serif" font-weight="bold">A</text>
  </g>

  <g transform="translate(183, 115)">
    <rect x="0" y="0" width="90" height="220" rx="4" fill="#3d2b1f" stroke="#5c3d2e" stroke-width="2"/>
    <rect x="0" y="10" width="90" height="200" rx="3" fill="#0d0d1a" stroke="#3d2b1f" stroke-width="2"/>
    <rect x="0" y="10" width="90" height="200" rx="3" fill="rgba(0,0,0,0.8)"/>
    <line x1="20" y1="10" x2="20" y2="210" stroke="#5c3d2e" stroke-width="1.5"/>
    <line x1="70" y1="10" x2="70" y2="210" stroke="#5c3d2e" stroke-width="1.5"/>
    <text x="45" y="115" text-anchor="middle" fill="rgba(255,255,255,0.06)" font-size="28" font-family="sans-serif">EMPTY</text>
    <text x="45" y="208" text-anchor="middle" fill="#CE93D8" font-size="20" font-family="sans-serif" font-weight="bold">B</text>
  </g>

  <g transform="translate(303, 115)">
    <rect x="0" y="0" width="90" height="220" rx="4" fill="#3d2b1f" stroke="#5c3d2e" stroke-width="2"/>
    <rect x="6" y="6" width="78" height="208" rx="2" fill="#4a3424"/>
    <rect x="36" y="16" width="18" height="50" rx="9" fill="#8B7355"/>
    <rect x="36" y="74" width="18" height="50" rx="9" fill="#8B7355"/>
    <rect x="36" y="132" width="18" height="50" rx="9" fill="#8B7355"/>
    <text x="45" y="208" text-anchor="middle" fill="#CE93D8" font-size="20" font-family="sans-serif" font-weight="bold">C</text>
  </g>

  <g transform="translate(413, 115)">
    <rect x="0" y="0" width="90" height="220" rx="4" fill="#3d2b1f" stroke="#5c3d2e" stroke-width="2"/>
    <rect x="6" y="6" width="78" height="208" rx="2" fill="#4a3424"/>
    <rect x="36" y="16" width="18" height="50" rx="9" fill="#8B7355"/>
    <rect x="36" y="74" width="18" height="50" rx="9" fill="#8B7355"/>
    <rect x="36" y="132" width="18" height="50" rx="9" fill="#8B7355"/>
    <text x="45" y="208" text-anchor="middle" fill="#CE93D8" font-size="20" font-family="sans-serif" font-weight="bold">D</text>
  </g>

  <g transform="translate(523, 115)">
    <rect x="0" y="0" width="90" height="220" rx="4" fill="#3d2b1f" stroke="#5c3d2e" stroke-width="2"/>
    <rect x="6" y="6" width="78" height="208" rx="2" fill="#4a3424"/>
    <rect x="36" y="16" width="18" height="50" rx="9" fill="#8B7355"/>
    <rect x="36" y="74" width="18" height="50" rx="9" fill="#8B7355"/>
    <rect x="36" y="132" width="18" height="50" rx="9" fill="#8B7355"/>
    <text x="45" y="208" text-anchor="middle" fill="#CE93D8" font-size="20" font-family="sans-serif" font-weight="bold">E</text>
  </g>

  <g transform="translate(10, 170)">
    <text fill="#FFD700" font-size="28" font-family="sans-serif">✧</text>
    <animateTransform attributeName="transform" type="translate" values="10,170;10,165;10,170" dur="2s" repeatCount="indefinite"/>
  </g>
  <g transform="translate(670, 180)">
    <text fill="#FFD700" font-size="24" font-family="sans-serif">✧</text>
    <animateTransform attributeName="transform" type="translate" values="670,180;670,175;670,180" dur="2.5s" repeatCount="indefinite"/>
  </g>

  <text x="350" y="460" text-anchor="middle" fill="#aaa" font-size="12" font-family="sans-serif" font-style="italic">Use the clues in the question to find Ron!</text>
</svg>